<?xml version="1.0" encoding="iso-8859-1"?>
<!-- Generator: Adobe Illustrator 19.0.0, SVG Export Plug-In . SVG Version: 6.00 Build 0)  -->
<svg version="1.1" id="Capa_1" xmlns="http://www.w3.org/2000/svg" xmlns:xlink="http://www.w3.org/1999/xlink" x="0px" y="0px"
	 viewBox="0 0 480 480" style="enable-background:new 0 0 480 480;fill:#005a9e" xml:space="preserve">
<g>
	<g>
		<path d="M440,192h-14.824c-8.072-18.328-22.912-33.256-41.256-41.288c0.056-0.928,0.08-1.832,0.08-2.712c0-33.088-26.912-60-60-60
			c-4.52,0-9.016,0.512-13.432,1.544C289.824,35.672,238.304,0,180,0C102.808,0,40,62.808,40,140c0,4.536,0.272,9.184,0.848,14.312
			C15.848,168.392,0,195.136,0,224c0,44.112,35.888,80,80,80h208v136c0,22.056,17.944,40,40,40h112c22.056,0,40-17.944,40-40V232
			C480,209.944,462.056,192,440,192z M288,232.008v56H80V288c-35.288,0-64-28.712-64-64c0-24.664,14.488-47.392,36.896-57.904
			c3.184-1.496,5.024-4.896,4.512-8.384C56.456,151.008,56,145.376,56,140c0-68.376,55.624-124,124-124
			c53.968,0,101.376,34.512,117.968,85.88c0.672,2.088,2.168,3.808,4.152,4.752c1.984,0.944,4.24,1.048,6.304,0.264
			C313.488,104.976,318.728,104,324,104c24.256,0,44,19.744,44,44c0,2.016-0.184,4.152-0.576,6.728
			c-0.584,3.824,1.648,7.52,5.312,8.784c14.576,5,26.92,15.296,34.616,28.496H328C305.944,192.008,288,209.952,288,232.008z
			 M440,464H328c-13.232,0-24-10.768-24-24h160C464,453.232,453.232,464,440,464z M464,424H304V296v-48h160V424z M304,232
			c0-13.232,10.768-24,24-24h91.848H440c13.232,0,24,10.768,24,24H304z"/>
	</g>
</g>
<g>
	<g>
		<path d="M442.344,322.344L432,332.688V296c0-13.232-10.768-24-24-24h-80v16h80c4.416,0,8,3.584,8,8v36.688l-10.344-10.344
			l-11.312,11.312l24,24c1.56,1.56,3.608,2.344,5.656,2.344c2.048,0,4.096-0.784,5.656-2.344l24-24L442.344,322.344z"/>
	</g>
</g>
<g>
	<g>
		<path d="M360,384c-4.416,0-8-3.584-8-8v-36.688l10.344,10.344l11.312-11.312l-24-24c-3.128-3.128-8.184-3.128-11.312,0l-24,24
			l11.312,11.312L336,339.312V376c0,13.232,10.768,24,24,24h72v-16H360z"/>
	</g>
</g>
<g>
	<g>
		<path d="M162.344,170.344L128,204.688V104h-16v100.688l-34.344-34.344l-11.312,11.312l48,48c1.56,1.56,3.608,2.344,5.656,2.344
			c2.048,0,4.096-0.784,5.656-2.344l48-48L162.344,170.344z"/>
	</g>
</g>
<g>
	<g>
		<path d="M245.656,106.344c-3.128-3.128-8.184-3.128-11.312,0l-48,48l11.312,11.312L232,131.312V232h16V131.312l34.344,34.344
			l11.312-11.312L245.656,106.344z"/>
	</g>
</g>
<g>
</g>
<g>
</g>
<g>
</g>
<g>
</g>
<g>
</g>
<g>
</g>
<g>
</g>
<g>
</g>
<g>
</g>
<g>
</g>
<g>
</g>
<g>
</g>
<g>
</g>
<g>
</g>
<g>
</g>
</svg>
