<?xml version="1.0" encoding="iso-8859-1"?>
<!-- Generator: Adobe Illustrator 19.0.0, SVG Export Plug-In . SVG Version: 6.00 Build 0)  -->
<svg version="1.1" id="Capa_1" xmlns="http://www.w3.org/2000/svg" xmlns:xlink="http://www.w3.org/1999/xlink" x="0px" y="0px"
	 viewBox="0 0 480 480" style="enable-background:new 0 0 480 480;fill:#005a9e" xml:space="preserve">
<g>
	<g>
		<path d="M472,96h-16V24c0-13.232-10.768-24-24-24h-96c-13.232,0-24,10.768-24,24v72h-16c-4.424,0-8,3.576-8,8
			c0,22.056,17.944,40,40,40h112c22.056,0,40-17.944,40-40C480,99.576,476.424,96,472,96z M328,24c0-4.416,3.584-8,8-8h96
			c4.416,0,8,3.584,8,8v72H328V24z M440,128H328c-10.432,0-19.328-6.688-22.632-16H320h128h14.632
			C459.328,121.312,450.432,128,440,128z"/>
	</g>
</g>
<g>
	<g>
		<path d="M416,32h-64c-4.424,0-8,3.576-8,8v32c0,4.424,3.576,8,8,8h64c4.424,0,8-3.576,8-8V40C424,35.576,420.424,32,416,32z
			 M408,64h-48V48h48V64z"/>
	</g>
</g>
<g>
	<g>
		<path d="M197,465.752l-37-29.592V392c0-22.056-17.944-40-40-40H40c-22.056,0-40,17.944-40,40v48c0,22.056,17.944,40,40,40h152
			c3.4,0,6.424-2.152,7.544-5.352C200.664,471.448,199.648,467.872,197,465.752z M40,464c-13.232,0-24-10.768-24-24v-48
			c0-13.232,10.768-24,24-24h80c13.232,0,24,10.768,24,24v48c0,2.432,1.104,4.728,3,6.248L169.192,464H40z"/>
	</g>
</g>
<g>
	<g>
		<rect x="40" y="408" width="16" height="16"/>
	</g>
</g>
<g>
	<g>
		<rect x="72" y="408" width="16" height="16"/>
	</g>
</g>
<g>
	<g>
		<rect x="104" y="408" width="16" height="16"/>
	</g>
</g>
<g>
	<g>
		<path d="M95.496,189.208L77.04,139.68C83.624,135.392,88,128.008,88,119.584c0-13.232-10.768-24-24-24s-24,10.768-24,24
			c0,8.416,4.376,15.808,10.952,20.096l-18.456,49.528c-0.912,2.456-0.56,5.2,0.928,7.352C34.92,198.72,37.384,200,40,200h48
			c2.616,0,5.08-1.28,6.568-3.44C96.064,194.408,96.408,191.664,95.496,189.208z M64,111.584c4.416,0,8,3.584,8,8
			c0,4.144-3.192,7.44-7.224,7.84c-0.512,0.048-1.032,0.048-1.544,0c-4.04-0.4-7.232-3.696-7.232-7.84
			C56,115.168,59.584,111.584,64,111.584z M51.512,184L64,150.496L76.488,184H51.512z"/>
	</g>
</g>
<g>
	<g>
		<path d="M34.52,75.976l10.968,11.64c10.216-9.624,26.816-9.624,37.032,0l10.968-11.64C77.24,60.648,50.768,60.648,34.52,75.976z"
			/>
	</g>
</g>
<g>
	<g>
		<path d="M18.344,50.76l11.312,11.312c18.712-18.72,49.168-18.72,67.88,0l11.312-11.312C83.896,25.808,43.296,25.808,18.344,50.76z
			"/>
	</g>
</g>
<g>
	<g>
		<path d="M63.432,0C39.936,0,17.832,9.16,1.2,25.8l11.312,11.312C26.136,23.496,44.208,16,63.432,16s37.304,7.496,50.912,21.112
			L125.656,25.8C109.024,9.168,86.928,0,63.432,0z"/>
	</g>
</g>
<g>
	<g>
		<path d="M472,368H360c-4.424,0-8,3.576-8,8v32v32v32c0,4.424,3.576,8,8,8h112c4.424,0,8-3.576,8-8v-32v-32v-32
			C480,371.576,476.424,368,472,368z M464,464h-96v-16h96V464z M464,432h-96v-16h96V432z M464,400h-96v-16h96V400z"/>
	</g>
</g>
<g>
	<g>
		<path d="M216,200c-17.648,0-32,14.352-32,32s14.352,32,32,32s32-14.352,32-32S233.648,200,216,200z M216,248
			c-8.824,0-16-7.176-16-16c0-8.824,7.176-16,16-16c8.824,0,16,7.176,16,16C232,240.824,224.824,248,216,248z"/>
	</g>
</g>
<g>
	<g>
		<path d="M280,208h-4.672c-0.136-0.328-0.264-0.656-0.408-0.976l3.304-3.304c1.504-1.504,2.344-3.528,2.344-5.656
			c0-2.12-0.84-4.16-2.344-5.656l-22.632-22.632c-3-3.008-8.312-2.992-11.312,0l-3.304,3.304c-0.32-0.144-0.648-0.272-0.976-0.408
			V168c0-4.424-3.576-8-8-8h-32c-4.424,0-8,3.576-8,8v4.672c-0.328,0.136-0.656,0.264-0.976,0.408l-3.304-3.304
			c-1.504-1.504-3.528-2.344-5.656-2.344c-2.128,0-4.16,0.84-5.656,2.344l-22.632,22.632c-1.504,1.504-2.344,3.536-2.344,5.656
			c0,2.128,0.84,4.16,2.344,5.656l3.304,3.304c-0.144,0.32-0.272,0.648-0.408,0.976H152c-4.424,0-8,3.576-8,8v32
			c0,4.424,3.576,8,8,8h4.672c0.136,0.328,0.264,0.656,0.408,0.976l-3.304,3.304c-1.504,1.504-2.344,3.528-2.344,5.656
			c0,2.12,0.84,4.16,2.344,5.656l22.632,22.632c3,3,8.312,3,11.312,0l3.304-3.304c0.32,0.144,0.648,0.272,0.976,0.408V296
			c0,4.424,3.576,8,8,8h32c4.424,0,8-3.576,8-8v-4.672c0.328-0.136,0.656-0.264,0.976-0.408l3.304,3.304
			c1.504,1.504,3.528,2.344,5.656,2.344s4.16-0.84,5.656-2.344l22.632-22.632c1.504-1.504,2.344-3.536,2.344-5.656
			c0-2.128-0.84-4.16-2.344-5.656l-3.304-3.304c0.144-0.32,0.272-0.648,0.408-0.976H280c4.424,0,8-3.576,8-8v-32
			C288,211.576,284.424,208,280,208z M272,240h-2.352c-3.536,0-6.656,2.32-7.664,5.712c-0.976,3.256-2.232,6.32-3.752,9.112
			c-1.688,3.12-1.136,6.976,1.376,9.48l1.64,1.64l-11.312,11.312l-1.64-1.64c-2.504-2.504-6.36-3.048-9.48-1.376
			c-2.792,1.512-5.848,2.776-9.112,3.752c-3.384,1-5.704,4.12-5.704,7.656V288h-16v-2.352c0-3.536-2.32-6.656-5.712-7.664
			c-3.256-0.976-6.32-2.232-9.112-3.752c-3.112-1.68-6.968-1.136-9.48,1.376l-1.64,1.64l-11.312-11.312l1.64-1.64
			c2.504-2.496,3.064-6.36,1.376-9.48c-1.512-2.792-2.776-5.848-3.752-9.112c-1-3.384-4.12-5.704-7.656-5.704H160v-16h2.352
			c3.536,0,6.656-2.32,7.664-5.712c0.976-3.256,2.232-6.32,3.752-9.112c1.688-3.12,1.136-6.976-1.376-9.48l-1.64-1.64l11.312-11.312
			l1.64,1.64c2.504,2.512,6.376,3.064,9.48,1.376c2.792-1.512,5.848-2.776,9.112-3.752c3.384-1,5.704-4.12,5.704-7.656V176h16v2.352
			c0,3.536,2.32,6.656,5.712,7.664c3.256,0.976,6.32,2.232,9.112,3.752c3.112,1.68,6.968,1.136,9.48-1.376l1.64-1.64l11.312,11.312
			l-1.64,1.64c-2.504,2.496-3.064,6.36-1.376,9.48c1.512,2.792,2.776,5.848,3.752,9.112c1,3.384,4.12,5.704,7.656,5.704H272V240z"/>
	</g>
</g>
<g>
	<g>
		<rect x="144" y="40" width="16" height="16"/>
	</g>
</g>
<g>
	<g>
		<rect x="176" y="40" width="16" height="16"/>
	</g>
</g>
<g>
	<g>
		<rect x="208" y="40" width="16" height="16"/>
	</g>
</g>
<g>
	<g>
		<rect x="240" y="40" width="16" height="16"/>
	</g>
</g>
<g>
	<g>
		<rect x="272" y="40" width="16" height="16"/>
	</g>
</g>
<g>
	<g>
		<rect x="448" y="168" width="16" height="16"/>
	</g>
</g>
<g>
	<g>
		<rect x="448" y="200" width="16" height="16"/>
	</g>
</g>
<g>
	<g>
		<rect x="448" y="328" width="16" height="16"/>
	</g>
</g>
<g>
	<g>
		<rect x="312" y="416" width="16" height="16"/>
	</g>
</g>
<g>
	<g>
		<rect x="280" y="416" width="16" height="16"/>
	</g>
</g>
<g>
	<g>
		<rect x="248" y="416" width="16" height="16"/>
	</g>
</g>
<g>
	<g>
		<rect x="216" y="416" width="16" height="16"/>
	</g>
</g>
<g>
	<g>
		<rect x="184" y="416" width="16" height="16"/>
	</g>
</g>
<g>
	<g>
		<rect x="16" y="320" width="16" height="16"/>
	</g>
</g>
<g>
	<g>
		<rect x="16" y="288" width="16" height="16"/>
	</g>
</g>
<g>
	<g>
		<rect x="16" y="256" width="16" height="16"/>
	</g>
</g>
<g>
	<g>
		<rect x="16" y="224" width="16" height="16"/>
	</g>
</g>
<g>
	<g>
		<rect x="448" y="296" width="16" height="16"/>
	</g>
</g>
<g>
	<g>
		<rect x="448" y="264" width="16" height="16"/>
	</g>
</g>
<g>
	<g>
		<rect x="448" y="232" width="16" height="16"/>
	</g>
</g>
<g>
	<g>
		<path d="M368,208c0-23.568-16.928-43.44-39.96-47.192c-9.592-1.912-19.504-0.392-28.192,3.736C287.912,124.2,250.976,96,208,96
			c-52.936,0-96,43.064-96,96c0,5.36,0.456,10.712,1.36,16.016C77.608,207.32,48,236.256,48,272c0,35.288,28.712,64,64,64h264
			c1.352,0,2.64-0.44,3.784-1.16C409.744,329.248,432,302.72,432,272C432,236.712,403.288,208,368,208z M374.76,319.464
			c-0.624,0.088-1.224,0.272-1.8,0.536H112c-26.472,0-48-21.528-48-48s21.528-48,48-48c3.32,0,6.704,0.36,10.056,1.08
			c2.776,0.592,5.632-0.32,7.544-2.408c1.912-2.072,2.592-5.008,1.784-7.712C129.144,207.448,128,199.72,128,192
			c0-44.112,35.888-80,80-80c39.104,0,72.2,28.04,78.712,66.664c0.48,2.824,2.424,5.168,5.104,6.168
			c2.688,1,5.696,0.488,7.896-1.344C305.616,178.592,312.632,176,320,176c1.624,0,3.256,0.168,5.168,0.544
			C340.712,179.088,352,192.312,352,208c0,2.2-0.28,4.528-0.864,7.104c-0.584,2.608,0.168,5.336,2,7.272
			c1.832,1.928,4.488,2.832,7.16,2.376C363.28,224.24,365.736,224,368,224c26.472,0,48,21.528,48,48
			C416,295.744,398.264,316.144,374.76,319.464z"/>
	</g>
</g>
<g>
</g>
<g>
</g>
<g>
</g>
<g>
</g>
<g>
</g>
<g>
</g>
<g>
</g>
<g>
</g>
<g>
</g>
<g>
</g>
<g>
</g>
<g>
</g>
<g>
</g>
<g>
</g>
<g>
</g>
</svg>
