<svg id="logo_layout" data-name="图层 3" xmlns="http://www.w3.org/2000/svg" viewBox="0 0 152.64 122.23"><defs><style>.cls-1{fill:#005a9e;}.cls-2{fill:#1681d8;}</style></defs><title>logo</title><path class="cls-1" d="M152.59,79.5a38.76,38.76,0,0,0-.87-6.35,40.62,40.62,0,0,0-37-31.32c-3.81-.2-7.66.2-11.45-.18A11.62,11.62,0,1,1,115.7,31.12a21.92,21.92,0,0,1-1,4.17,60.55,60.55,0,0,1,9,1.36,58.7,58.7,0,0,1,8.79,3.09c1.52-5.6,2.08-11.13.67-16.83a30.47,30.47,0,0,0-9.65-15.69A29.74,29.74,0,0,0,103.32.07a30.79,30.79,0,0,0-18.6,7.09A30.1,30.1,0,0,0,79.28,47a30.46,30.46,0,0,0,17.63,12.2c7,1.72,14.23-.22,21.12,1.6a21.61,21.61,0,0,1,2.18.71A79.47,79.47,0,0,1,152.61,80C152.6,79.82,152.6,79.66,152.59,79.5Z"/><path class="cls-2" d="M152.61,80a79.47,79.47,0,0,0-32.39-18.51,22.17,22.17,0,0,1,13.12,13.61,20.86,20.86,0,0,1-4.58,20.75,23.77,23.77,0,0,1-8.41,5.65,36.08,36.08,0,0,1-11.55,2.19c-6.53.39-13.08.34-19.62.34H70.28q-5.7,0-11.4-.06t-11.29-.18c-7.9-.16-15.85-1-22-6.4a20.87,20.87,0,0,1-7-19A22.4,22.4,0,0,1,31.37,61.64,23.89,23.89,0,0,1,42,60c4.12.16,8.22.29,12.35.31,7.77,0,20.25-.07,28-.28L84.73,60a36,36,0,0,1-10.11-9.8,34.82,34.82,0,0,1-4.25-8.41c-1.7.07-3.4.2-5.09.21-2.42,0-9.54,0-12-.1a18.87,18.87,0,0,1-7.83-1.43A12.53,12.53,0,0,1,40.34,36a11.44,11.44,0,0,1,1.35-13.69,12.06,12.06,0,0,1,5.55-3.54,23.81,23.81,0,0,1,6.88-.47c3.9,0,11.78-.1,16.32,0A35,35,0,0,1,81.1,2.8,36.39,36.39,0,0,1,84.93,0H58.55A86.05,86.05,0,0,0,45.71.5,29.84,29.84,0,0,0,24.46,45a41.62,41.62,0,0,0-18.05,15A39.89,39.89,0,0,0,.09,84.36C1,98.06,9.37,109.71,21,116.13a43,43,0,0,0,8.28,3.5c9,2.74,18.72,2.45,28.05,2.54,6.23.06,12.45.05,18.68.06,8.07,0,16.14,0,24.21-.15,9.21-.16,18.51-.24,27.15-3.83a42,42,0,0,0,18.48-14.75A38.86,38.86,0,0,0,152.61,80Z"/></svg>